HIERARCHY
ROOT Hips
{
	OFFSET 0.000000 0.000000 0.000000 
	CHANNELS 6 Xposition Yposition Zposition Yrotation Zrotation Xrotation 
	JOINT Lumbar
	{
		OFFSET 0.000000 0.000000 0.000000 
		CHANNELS 3 Zrotation Xrotation Yrotation
		JOINT Neck
		{
			OFFSET 0.000000 0.445665 0.000000 
			CHANNELS 3 Zrotation Xrotation Yrotation
			End Site
			{
				OFFSET 0.000000 0.227535 0.000000 
			}
		}
		JOINT RightShoulder
		{
			OFFSET 0.019635 0.377685 0.194865 
			CHANNELS 3 Zrotation Xrotation Yrotation
			JOINT RightElbow
			{
				OFFSET 0.000000 -0.243375 0.000000 
				CHANNELS 2 Zrotation Yrotation
				JOINT RightWrist
				{
					OFFSET 0.000000 -0.264825 0.000000 
					CHANNELS 2 Zrotation Xrotation
					End Site
					{
						OFFSET 0.006600 -0.176220 0.000990 
					}
				}
			}
		}
		JOINT LeftShoulder
		{
			OFFSET 0.019635 0.377685 -0.194865 
			CHANNELS 3 Zrotation Xrotation Yrotation
			JOINT LeftElbow
			{
				OFFSET 0.000000 -0.243375 0.000000 
				CHANNELS 2 Zrotation Yrotation
				JOINT LeftWrist
				{
					OFFSET 0.000000 -0.264825 0.000000 
					CHANNELS 2 Zrotation Xrotation
					End Site
					{
						OFFSET 0.006600 -0.176220 -0.000990 
					}
				}
			}
		}
	}
	JOINT RightHip
	{
		OFFSET 0.052140 -0.069960 0.075570 
		CHANNELS 3 Zrotation Xrotation Yrotation
		JOINT RightKnee
		{
			OFFSET 0.000000 -0.402270 0.000000 
			CHANNELS 1 Zrotation
			JOINT RightAnkle
			{
				OFFSET 0.000000 -0.404085 0.000000 
				CHANNELS 3 Zrotation Xrotation Yrotation
				End Site
				{
					OFFSET 0.204105 -0.089430 0.008415 
				}
			}
		}
	}
	JOINT LeftHip
	{
		OFFSET 0.052140 -0.069960 -0.075570 
		CHANNELS 3 Zrotation Xrotation Yrotation
		JOINT LeftKnee
		{
			OFFSET 0.000000 -0.402270 0.000000 
			CHANNELS 1 Zrotation
			JOINT LeftAnkle
			{
				OFFSET 0.000000 -0.404085 0.000000 
				CHANNELS 3 Zrotation Xrotation Yrotation
				End Site
				{
					OFFSET 0.204105 -0.089430 -0.008415 
				}
			}
		}
	}
}
MOTION
Frames: 11
Frame Time: 0.02
-0 0.95578 0 182.38407 0 -3.41201 3.66322 2.1087 -5.69003 -36.27576 3.48366 4.15282 -17.59933 -75.45876 -78.95965 21.23648 78.60756 -17.8276 -2.20273 -4.42833 71.80355 72.40928 25.28763 -68.92975 -31.19827 1.41214 -1.41422 3.29766 7.16007 -8.49065 -1.71499 -2.74784 -6.48482 -0.1345 2.88118 -0.44393 -8.54966 5.75923 1.46845 0.00381
0.00015 0.95579 -0.00013 182.38104 0 -3.41138 3.61851 2.10596 -5.7014 -36.26208 3.49177 4.14747 -17.38831 -75.37862 -79.15379 21.264 78.59245 -17.33921 -2.20751 -4.25104 71.76559 72.25585 25.2677 -68.76594 -31.13819 1.3821 -1.39624 3.30344 7.15573 -8.50611 -1.71804 -2.75364 -6.4715 -0.12685 2.88768 -0.42866 -8.54707 5.75135 1.47222 -0.00495
0.0003 0.9558 -0.00025 182.378 0 -3.41073 3.57388 2.10322 -5.7128 -36.24862 3.49999 4.14215 -17.17927 -75.29932 -79.34648 21.29122 78.57731 -16.85537 -2.21218 -4.07524 71.72743 72.10412 25.24829 -68.60278 -31.0781 1.35214 -1.37826 3.30918 7.15165 -8.52166 -1.72099 -2.75945 -6.45845 -0.11917 2.8941 -0.41348 -8.5446 5.74352 1.47595 -0.01363
0.00045 0.95581 -0.00038 182.37502 0 -3.41011 3.52933 2.10057 -5.72455 -36.23563 3.50874 4.13688 -16.97502 -75.22247 -79.53631 21.31752 78.56276 -16.38251 -2.21636 -3.90312 71.68804 71.95677 25.23079 -68.4407 -31.01724 1.32219 -1.36052 3.31492 7.14829 -8.53682 -1.72405 -2.76526 -6.44632 -0.11139 2.90045 -0.39854 -8.54238 5.73585 1.47954 -0.0222
0.0006 0.95582 -0.00051 182.37187 0 -3.4095 3.48457 2.09756 -5.73458 -36.2198 3.51467 4.13134 -16.74413 -75.13251 -79.7425 21.34871 78.5461 -15.84855 -2.22303 -3.71083 71.65513 71.78508 25.20322 -68.27295 -30.96024 1.29216 -1.34201 3.3208 7.14083 -8.55295 -1.72709 -2.77097 -6.42926 -0.10426 2.9074 -0.3824 -8.53859 5.72738 1.48385 -0.03149
0.00075 0.95583 -0.00063 182.369 0 -3.40876 3.44017 2.09523 -5.74814 -36.21023 3.52657 4.12637 -16.57067 -75.07045 -79.91307 21.3695 78.53323 -15.44633 -2.22448 -3.56186 71.60857 71.66581 25.19693 -68.11733 -30.89529 1.26233 -1.32478 3.32628 7.14225 -8.56777 -1.72975 -2.77695 -6.42268 -0.0957 2.91292 -0.36877 -8.53827 5.72062 1.48666 -0.03915
0.00089 0.95583 -0.00069 182.36756 0 -3.40862 3.39645 2.09553 -5.77308 -36.21652 3.55593 4.12301 -16.54938 -75.08569 -79.9938 21.36155 78.53698 -15.39308 -2.21059 -3.52882 71.52144 71.68691 25.25184 -67.99266 -30.80482 1.23248 -1.314 3.33151 7.16741 -8.5726 -1.73499 -2.78323 -6.44556 -0.08323 2.91565 -0.36239 -8.54672 5.71847 1.48493 -0.04323
0.00102 0.95583 -0.00073 182.36632 0 -3.40819 3.3531 2.0964 -5.80133 -36.22944 3.59117 4.12019 -16.58713 -75.129 -80.03747 21.34312 78.5436 -15.47512 -2.19158 -3.54018 71.42094 71.76169 25.32784 -67.88084 -30.70704 1.20299 -1.30407 3.33619 7.20165 -8.57709 -1.73925 -2.78987 -6.47892 -0.06929 2.91672 -0.3585 -8.55883 5.7181 1.48176 -0.04552
0.00116 0.95582 -0.00077 182.36452 0 -3.40724 3.30969 2.09648 -5.827 -36.24023 3.62314 4.1171 -16.60213 -75.15935 -80.09211 21.32949 78.54473 -15.50536 -2.17547 -3.53359 71.32838 71.81486 25.3927 -67.76427 -30.61461 1.17355 -1.29168 3.34057 7.2324 -8.58612 -1.74149 -2.79667 -6.50724 -0.05592 2.91776 -0.35327 -8.56985 5.71697 1.47953 -0.04802
0.00131 0.95582 -0.00083 182.36458 0 -3.40896 3.26579 2.09865 -5.85714 -36.24715 3.65767 4.11416 -16.60026 -75.19072 -80.16989 21.31567 78.5629 -15.49635 -2.15689 -3.51753 71.2281 71.85654 25.46416 -67.64196 -30.51297 1.14284 -1.28756 3.34724 7.26078 -8.57739 -1.7538 -2.80211 -6.53686 -0.04289 2.92203 -0.34888 -8.57851 5.71555 1.47614 -0.053
0.00143 0.95582 -0.00086 182.36095 0 -3.40516 3.22306 2.09676 -5.87885 -36.26388 3.68824 4.11102 -16.64713 -75.22643 -80.19272 21.29982 78.54703 -15.59922 -2.14229 -3.53184 71.14054 71.93456 25.52685 -67.53614 -30.42962 1.1153 -1.26702 3.34903 7.29587 -8.60462 -1.74531 -2.81043 -6.56608 -0.02892 2.91926 -0.3434 -8.59288 5.71524 1.47479 -0.05248
